<svg xmlns="http://www.w3.org/2000/svg" viewBox="0 0 100 112.44"><defs><style>.cls-1{fill:#231815;}.cls-2{fill:#001cb9;}.cls-3{fill:#ff2600;}</style></defs><title>report_logo_1</title><g id="图层_2" data-name="图层 2"><g id="图层_1-2" data-name="图层 1"><path class="cls-1" d="M60.79,110.12a.61.61,0,0,1,.6.6.59.59,0,0,1-.6.6H58.65a3.19,3.19,0,0,1-3.18-3.18V95.81a.59.59,0,0,1,.6-.61.61.61,0,0,1,.6.61v5h4.09a.59.59,0,1,1,0,1.19H56.68v6.13a2,2,0,0,0,2,2Z"/><path class="cls-1" d="M76,95.81a.59.59,0,0,1,.6-.61.61.61,0,0,1,.6.61v12.34a2,2,0,0,0,2,2h2a.6.6,0,1,1,0,1.21h-2A3.19,3.19,0,0,1,76,108.15Z"/><path class="cls-1" d="M40.89,111.46a.5.5,0,0,1-.56-.56v-1.75a6.19,6.19,0,0,1-1.86,1.59,5.81,5.81,0,0,1-2.86.71,5.75,5.75,0,0,1-2.28-.46,5.85,5.85,0,0,1-3.12-3.11,5.95,5.95,0,0,1,0-4.58,5.8,5.8,0,0,1,1.25-1.84,6,6,0,0,1,1.87-1.24,5.88,5.88,0,0,1,4.57,0,6.18,6.18,0,0,1,1.86,1.24A5.67,5.67,0,0,1,41,103.31a5.75,5.75,0,0,1,.46,2.29v5.3C41.5,111.27,41.28,111.46,40.89,111.46ZM35.61,101a4.66,4.66,0,0,0-1.8.35,4.49,4.49,0,0,0-1.48,1,4.88,4.88,0,0,0-1,1.49,4.44,4.44,0,0,0-.37,1.82,4.57,4.57,0,0,0,.38,1.82,5.11,5.11,0,0,0,1,1.54,4.71,4.71,0,0,0,1.48,1,4.74,4.74,0,0,0,3.63,0,4.74,4.74,0,0,0,1.47-1,4.89,4.89,0,0,0,1-1.54,4.59,4.59,0,0,0,.38-1.82,4.46,4.46,0,0,0-.38-1.82,4.68,4.68,0,0,0-1-1.48,4.54,4.54,0,0,0-1.47-1A4.7,4.7,0,0,0,35.61,101Z"/><path class="cls-1" d="M49.19,111.46a5.66,5.66,0,0,1-2.27-.46,6,6,0,0,1-1.85-1.24,5.81,5.81,0,0,1-1.25-1.84,5.73,5.73,0,0,1-.46-2.29,5.67,5.67,0,0,1,.46-2.28,6,6,0,0,1,1.25-1.84,5.79,5.79,0,0,1,4.12-1.69,5.91,5.91,0,0,1,2.28.45,5.49,5.49,0,0,1,1.84,1.24.58.58,0,0,1,0,.81.67.67,0,0,1-.44.16.57.57,0,0,1-.42-.16,4.47,4.47,0,0,0-1.45-1,4.52,4.52,0,0,0-1.81-.36,4.62,4.62,0,0,0-1.82.36,5.08,5.08,0,0,0-1.51,1,4.83,4.83,0,0,0-1,1.51,4.69,4.69,0,0,0-.35,1.8,4.78,4.78,0,0,0,.35,1.81,4.56,4.56,0,0,0,1,1.5,5.08,5.08,0,0,0,1.51,1,4.63,4.63,0,0,0,1.82.36,4.47,4.47,0,0,0,1.79-.35,4.53,4.53,0,0,0,1.42-1,.65.65,0,0,1,.86,0,.66.66,0,0,1,.16.43.48.48,0,0,1-.17.39A6,6,0,0,1,51.42,111,5.65,5.65,0,0,1,49.19,111.46Z"/><path class="cls-1" d="M73.61,111.46a.5.5,0,0,1-.56-.56v-1.75a6.17,6.17,0,0,1-1.85,1.59,5.83,5.83,0,0,1-2.87.71,5.75,5.75,0,0,1-2.28-.46,5.84,5.84,0,0,1-3.12-3.11,5.81,5.81,0,0,1,1.25-6.42,6,6,0,0,1,1.87-1.24,5.88,5.88,0,0,1,4.57,0,6.19,6.19,0,0,1,1.86,1.24,5.7,5.7,0,0,1,1.73,4.13v5.3C74.22,111.12,74.14,111.46,73.61,111.46ZM68.34,101a4.65,4.65,0,0,0-1.8.35,4.47,4.47,0,0,0-1.48,1,4.84,4.84,0,0,0-1,1.49,4.44,4.44,0,0,0-.38,1.82,4.57,4.57,0,0,0,.38,1.82,5.1,5.1,0,0,0,1,1.54,4.68,4.68,0,0,0,1.48,1,4.74,4.74,0,0,0,3.63,0,4.74,4.74,0,0,0,1.47-1,4.87,4.87,0,0,0,1-1.53,4.58,4.58,0,0,0,.38-1.82,4.45,4.45,0,0,0-.38-1.82,4.63,4.63,0,0,0-1-1.48,4.53,4.53,0,0,0-1.47-1A4.69,4.69,0,0,0,68.34,101Z"/><path class="cls-1" d="M19,111.46a.56.56,0,0,1-.57-.54v-5.46a5.25,5.25,0,0,1,.9-3.07,5.71,5.71,0,0,1,2-1.92,5.5,5.5,0,0,1,2.78-.72,5.59,5.59,0,0,1,4,1.66.62.62,0,0,1,.22.46.57.57,0,0,1-.23.41.58.58,0,0,1-.39.13.6.6,0,0,1-.38-.12,4.42,4.42,0,0,0-1.48-1,4.53,4.53,0,0,0-1.77-.35,4.41,4.41,0,0,0-1.77.35,4.73,4.73,0,0,0-1.47,1,4.42,4.42,0,0,0-1.31,3.19v5.46a.56.56,0,0,1-.57.54Z"/><path class="cls-2" d="M76.95,30.69h0A76.94,76.94,0,0,0,0,107.63H0a4.81,4.81,0,0,0,9.62,0h0A67.33,67.33,0,0,1,76.95,40.31h0a4.81,4.81,0,0,0,0-9.62Z"/><path class="cls-2" d="M76.95,1.84h0A105.54,105.54,0,0,0,9,26.54H9a4.81,4.81,0,0,0-.59,6.77,4.86,4.86,0,0,0,6.78.6h0A95.78,95.78,0,0,1,76.95,11.46h0a4.81,4.81,0,0,0,0-9.62Z"/><path class="cls-3" d="M86.72,6.64a1.75,1.75,0,0,0,1.91,1.71h9.47A1.75,1.75,0,0,0,100,6.64h0a1.75,1.75,0,0,0-1.91-1.71H88.62a1.75,1.75,0,0,0-1.91,1.71Z"/><path class="cls-3" d="M93.36,13.28a1.74,1.74,0,0,0,1.71-1.91V1.9A1.74,1.74,0,0,0,93.36,0h0a1.75,1.75,0,0,0-1.71,1.9v9.47a1.75,1.75,0,0,0,1.71,1.91Z"/></g></g></svg>